<svg version="1.0" xmlns="http://www.w3.org/2000/svg"
     width="300.000000pt" height="300.000000pt" viewBox="0 0 300.000000 300.000000"
     preserveAspectRatio="xMidYMid meet">
    <metadata>
        Created by potrace 1.13, written by Peter Selinger 2001-2015
    </metadata>
    <g transform="translate(0.000000,300.000000) scale(0.100000,-0.100000)"
       fill="#f07558" stroke="none">
        <path d="M1379 2940 c-58 -5 -152 -19 -210 -33 -788 -190 -1265 -971 -1073
-1755 129 -524 542 -932 1074 -1059 132 -31 391 -43 533 -23 757 103 1314 809
1238 1568 -80 790 -763 1360 -1562 1302z m363 -85 c529 -92 969 -505 1097
-1030 47 -191 51 -411 12 -600 -27 -127 -54 -202 -121 -340 -191 -388 -562
-663 -1001 -741 -124 -22 -344 -22 -466 0 -267 47 -513 172 -711 360 -210 201
-345 445 -408 736 -28 128 -26 400 4 537 56 261 171 477 355 669 227 239 518
385 842 423 101 12 284 6 397 -14z"/>
        <path d="M1266 2771 c-280 -62 -473 -161 -657 -338 -203 -196 -338 -445 -384
-707 -20 -116 -19 -326 1 -446 22 -126 35 -156 28 -60 -11 147 32 340 108 478
103 187 251 321 444 402 115 48 123 46 140 -20 62 -242 272 -418 521 -436 254
-19 499 144 583 389 30 87 37 222 16 311 -46 195 -199 359 -393 422 -79 26
-299 28 -407 5z"/>
        <path d="M1877 2706 c186 -98 320 -238 409 -431 51 -111 74 -219 74 -356 0
-109 -15 -229 -29 -229 -3 0 -28 7 -56 16 -62 19 -202 21 -275 4 -161 -37
-313 -156 -384 -300 -85 -175 -84 -339 4 -525 92 -193 283 -304 526 -305 102
0 170 16 258 63 157 84 299 303 358 556 28 124 36 384 14 511 -69 399 -322
748 -675 929 -92 47 -262 111 -292 111 -8 0 23 -20 68 -44z"/>
        <path d="M785 1704 c-89 -21 -117 -31 -166 -55 -162 -80 -270 -225 -307 -411
-33 -169 13 -326 148 -508 265 -356 641 -533 1100 -517 317 10 554 108 818
337 29 25 52 48 52 53 0 4 -27 -11 -59 -33 -137 -94 -281 -140 -462 -147 -243
-11 -448 61 -634 220 l-39 34 56 62 c106 118 158 249 158 401 0 150 -50 277
-151 385 -114 121 -231 175 -394 180 -55 2 -109 2 -120 -1z"/>
    </g>
</svg>